<svg width="80" height="80" viewBox="0 0 80 80" fill="none" xmlns="http://www.w3.org/2000/svg">
<path fill-rule="evenodd" clip-rule="evenodd" d="M48.3333 23.3334C48.3333 19.6515 45.3486 16.6667 41.6667 16.6667C37.9848 16.6667 35 19.6515 35 23.3334H48.3333Z" stroke="#F7A300" stroke-width="1.5" stroke-linecap="round" stroke-linejoin="round"/>
<path d="M32.1969 42.8029C31.904 42.51 31.4291 42.51 31.1363 42.8029C30.8434 43.0958 30.8434 43.5706 31.1363 43.8635L32.1969 42.8029ZM38.3333 49.9999L37.8029 50.5302C37.9436 50.6708 38.1343 50.7499 38.3333 50.7499C38.5322 50.7499 38.7229 50.6708 38.8636 50.5302L38.3333 49.9999ZM52.1969 37.1969C52.4898 36.904 52.4898 36.4291 52.1969 36.1362C51.904 35.8433 51.4291 35.8433 51.1363 36.1362L52.1969 37.1969ZM48.3332 22.5832C47.919 22.5832 47.5832 22.919 47.5832 23.3332C47.5832 23.7474 47.919 24.0832 48.3332 24.0832V22.5832ZM53.8899 23.3332V24.0832C53.8979 24.0832 53.906 24.0831 53.914 24.0828L53.8899 23.3332ZM59.9999 29.0465H60.7499C60.7499 29.0378 60.7498 29.0291 60.7495 29.0203L59.9999 29.0465ZM59.9999 57.6165L60.7495 57.6423C60.7498 57.6337 60.7499 57.6251 60.7499 57.6165H59.9999ZM53.8899 63.3332L53.914 62.5836C53.906 62.5833 53.8979 62.5832 53.8899 62.5832V63.3332ZM29.4433 63.3332V62.5832C29.4352 62.5832 29.4272 62.5833 29.4192 62.5836L29.4433 63.3332ZM23.3333 57.6199H22.5833C22.5833 57.6286 22.5834 57.6373 22.5837 57.6461L23.3333 57.6199ZM23.3333 29.0465L22.5837 29.0203C22.5834 29.0291 22.5833 29.0378 22.5833 29.0465H23.3333ZM29.4433 23.3332L29.4192 24.0828C29.4272 24.0831 29.4352 24.0832 29.4433 24.0832L29.4433 23.3332ZM34.9999 24.0832C35.4141 24.0832 35.7499 23.7474 35.7499 23.3332C35.7499 22.919 35.4141 22.5832 34.9999 22.5832V24.0832ZM31.1363 43.8635L37.8029 50.5302L38.8636 49.4695L32.1969 42.8029L31.1363 43.8635ZM38.8636 50.5302L52.1969 37.1969L51.1363 36.1362L37.8029 49.4695L38.8636 50.5302ZM48.3332 24.0832H53.8899V22.5832H48.3332V24.0832ZM53.914 24.0828C56.764 23.9912 59.1508 26.223 59.2504 29.0727L60.7495 29.0203C60.621 25.3443 57.5422 22.4654 53.8658 22.5836L53.914 24.0828ZM59.2499 29.0465V57.6165H60.7499V29.0465H59.2499ZM59.2504 57.5907C59.1523 60.4416 56.7651 62.6752 53.914 62.5836L53.8658 64.0828C57.5436 64.2009 60.623 61.3198 60.7495 57.6423L59.2504 57.5907ZM53.8899 62.5832H29.4433V64.0832H53.8899V62.5832ZM29.4192 62.5836C26.5692 62.6752 24.1824 60.4434 24.0828 57.5937L22.5837 57.6461C22.7122 61.3221 25.791 64.201 29.4673 64.0828L29.4192 62.5836ZM24.0833 57.6199V29.0465H22.5833V57.6199H24.0833ZM24.0828 29.0727C24.1824 26.223 26.5692 23.9912 29.4192 24.0828L29.4673 22.5836C25.791 22.4654 22.7122 25.3443 22.5837 29.0203L24.0828 29.0727ZM29.4433 24.0832H34.9999V22.5832H29.4433V24.0832Z" fill="#F7A300"/>
</svg>
