<svg width="32" height="32" viewBox="0 0 32 32" fill="none" xmlns="http://www.w3.org/2000/svg">
<path d="M5.33325 15.25C4.91904 15.25 4.58325 15.5858 4.58325 16C4.58325 16.4142 4.91904 16.75 5.33325 16.75V15.25ZM26.6666 16.75C27.0808 16.75 27.4166 16.4142 27.4166 16C27.4166 15.5858 27.0808 15.25 26.6666 15.25V16.75ZM5.33325 7.25C4.91904 7.25 4.58325 7.58579 4.58325 8C4.58325 8.41421 4.91904 8.75 5.33325 8.75V7.25ZM26.6666 8.75C27.0808 8.75 27.4166 8.41421 27.4166 8C27.4166 7.58579 27.0808 7.25 26.6666 7.25V8.75ZM5.33325 23.25C4.91904 23.25 4.58325 23.5858 4.58325 24C4.58325 24.4142 4.91904 24.75 5.33325 24.75V23.25ZM26.6666 24.75C27.0808 24.75 27.4166 24.4142 27.4166 24C27.4166 23.5858 27.0808 23.25 26.6666 23.25V24.75ZM5.33325 16.75H26.6666V15.25H5.33325V16.75ZM5.33325 8.75H26.6666V7.25H5.33325V8.75ZM5.33325 24.75H26.6666V23.25H5.33325V24.75Z" fill="black"/>
</svg>
