<svg width="33" height="33" viewBox="0 0 33 33" fill="none" xmlns="http://www.w3.org/2000/svg">
<path d="M25.449 16.4822C25.8062 16.6918 26.2658 16.5721 26.4754 16.2149C26.685 15.8576 26.5653 15.3981 26.208 15.1885L25.449 16.4822ZM9.09116 6.01533L8.7041 6.65779L8.71163 6.66221L9.09116 6.01533ZM7.73219 6.04632L7.31626 5.42222L7.31626 5.42222L7.73219 6.04632ZM7.1805 7.28867L6.4386 7.39861C6.44594 7.44811 6.45821 7.49676 6.47523 7.54382L7.1805 7.28867ZM9.56723 16.0905C9.70815 16.48 10.1381 16.6815 10.5276 16.5406C10.9172 16.3997 11.1187 15.9697 10.9778 15.5802L9.56723 16.0905ZM26.208 16.4822C26.5653 16.2726 26.685 15.8131 26.4754 15.4558C26.2658 15.0985 25.8062 14.9788 25.449 15.1885L26.208 16.4822ZM9.09116 25.6553L8.71161 25.0084L8.70412 25.0129L9.09116 25.6553ZM7.73219 25.6243L7.31626 26.2484H7.31626L7.73219 25.6243ZM7.1805 24.382L6.47523 24.1268C6.45821 24.1739 6.44594 24.2225 6.4386 24.2721L7.1805 24.382ZM10.9778 16.0905C11.1187 15.701 10.9172 15.271 10.5276 15.1301C10.1381 14.9892 9.70815 15.1907 9.56723 15.5802L10.9778 16.0905ZM25.8285 16.5853C26.2427 16.5853 26.5785 16.2495 26.5785 15.8353C26.5785 15.4211 26.2427 15.0853 25.8285 15.0853V16.5853ZM10.2725 15.0853C9.85828 15.0853 9.5225 15.4211 9.5225 15.8353C9.5225 16.2495 9.85828 16.5853 10.2725 16.5853V15.0853ZM26.208 15.1885L9.4707 5.36845L8.71163 6.66221L25.449 16.4822L26.208 15.1885ZM9.47821 5.37292C8.80874 4.96958 7.96664 4.98878 7.31626 5.42222L8.14811 6.67043C8.31538 6.55896 8.53195 6.55402 8.70412 6.65775L9.47821 5.37292ZM7.31626 5.42222C6.66588 5.85565 6.32402 6.62548 6.4386 7.39861L7.92239 7.17872C7.89293 6.97988 7.98085 6.7819 8.14811 6.67043L7.31626 5.42222ZM6.47523 7.54382L9.56723 16.0905L10.9778 15.5802L7.88576 7.03352L6.47523 7.54382ZM25.449 15.1885L8.71163 25.0085L9.4707 26.3022L26.208 16.4822L25.449 15.1885ZM8.70412 25.0129C8.53195 25.1166 8.31538 25.1117 8.14811 25.0002L7.31626 26.2484C7.96664 26.6819 8.80874 26.7011 9.47821 26.2977L8.70412 25.0129ZM8.14811 25.0002C7.98085 24.8888 7.89293 24.6908 7.92239 24.4919L6.4386 24.2721C6.32402 25.0452 6.66588 25.815 7.31626 26.2484L8.14811 25.0002ZM7.88576 24.6371L10.9778 16.0905L9.56723 15.5802L6.47523 24.1268L7.88576 24.6371ZM25.8285 15.0853H10.2725V16.5853H25.8285V15.0853Z" fill="white"/>
</svg>
