<svg width="47" height="47" viewBox="0 0 47 47" fill="none" xmlns="http://www.w3.org/2000/svg">
<path d="M23.6069 10.5417C24.0211 10.5406 24.356 10.204 24.3549 9.78975C24.3538 9.37554 24.0171 9.04065 23.6029 9.04175L23.6069 10.5417ZM17.7456 15.6667L18.4956 15.6667L18.4956 15.6667L17.7456 15.6667ZM16.9956 15.7725C16.9956 16.1867 17.3314 16.5225 17.7456 16.5225C18.1598 16.5225 18.4956 16.1867 18.4956 15.7725H16.9956ZM16.9956 17.6251C16.9956 18.0393 17.3314 18.3751 17.7456 18.3751C18.1598 18.3751 18.4956 18.0393 18.4956 17.6251H16.9956ZM18.4956 15.7725C18.4956 15.3583 18.1598 15.0225 17.7456 15.0225C17.3314 15.0225 16.9956 15.3583 16.9956 15.7725H18.4956ZM17.6558 15.0279C17.2445 15.0775 16.9514 15.4511 17.001 15.8623C17.0506 16.2736 17.4242 16.5667 17.8354 16.5171L17.6558 15.0279ZM19.7039 15.6667L19.6948 16.4167H19.7039V15.6667ZM27.314 15.6667L27.314 16.4168L27.3231 16.4167L27.314 15.6667ZM29.1825 16.5171C29.5937 16.5667 29.9673 16.2736 30.0169 15.8623C30.0665 15.4511 29.7734 15.0775 29.3622 15.0279L29.1825 16.5171ZM17.851 16.5159C18.2615 16.4609 18.5498 16.0835 18.4948 15.673C18.4399 15.2624 18.0625 14.9742 17.6519 15.0291L17.851 16.5159ZM11.8862 23.5001L11.1652 23.2936C11.1629 23.3018 11.1607 23.31 11.1586 23.3182L11.8862 23.5001ZM9.92792 31.3334L9.20031 31.1515C9.19547 31.1709 9.1914 31.1904 9.18812 31.2101L9.92792 31.3334ZM37.0782 31.3334L37.8181 31.2106C37.8148 31.1907 37.8107 31.171 37.8059 31.1515L37.0782 31.3334ZM35.1199 23.5001L35.8475 23.3182C35.8455 23.3103 35.8434 23.3024 35.8412 23.2945L35.1199 23.5001ZM29.3608 15.0292C28.9503 14.9739 28.5727 15.2618 28.5173 15.6723C28.462 16.0828 28.7499 16.4604 29.1604 16.5158L29.3608 15.0292ZM18.4956 22.7559C18.4956 22.3417 18.1598 22.0059 17.7456 22.0059C17.3314 22.0059 16.9956 22.3417 16.9956 22.7559H18.4956ZM16.9956 24.4792C16.9956 24.8935 17.3314 25.2292 17.7456 25.2292C18.1598 25.2292 18.4956 24.8935 18.4956 24.4792H16.9956ZM23.4111 9.04175C22.9969 9.04065 22.6602 9.37554 22.6591 9.78975C22.658 10.204 22.9929 10.5406 23.4071 10.5417L23.4111 9.04175ZM29.2684 15.6667L28.5184 15.6667V15.6667H29.2684ZM28.5184 15.7725C28.5184 16.1867 28.8542 16.5225 29.2684 16.5225C29.6826 16.5225 30.0184 16.1867 30.0184 15.7725H28.5184ZM30.0184 15.7725C30.0184 15.3583 29.6826 15.0225 29.2684 15.0225C28.8542 15.0225 28.5184 15.3583 28.5184 15.7725H30.0184ZM28.5184 17.6251C28.5184 18.0393 28.8542 18.3751 29.2684 18.3751C29.6826 18.3751 30.0184 18.0393 30.0184 17.6251H28.5184ZM30.0184 22.7579C30.0184 22.3437 29.6826 22.0079 29.2684 22.0079C28.8542 22.0079 28.5184 22.3437 28.5184 22.7579H30.0184ZM28.5184 24.4792C28.5184 24.8935 28.8542 25.2292 29.2684 25.2292C29.6826 25.2292 30.0184 24.8935 30.0184 24.4792H28.5184ZM23.6029 9.04175C19.9509 9.05149 16.9956 12.0148 16.9956 15.6668L18.4956 15.6667C18.4956 12.8416 20.7818 10.5493 23.6069 10.5417L23.6029 9.04175ZM16.9956 15.6667V15.7725H18.4956V15.6667H16.9956ZM18.4956 17.6251V15.7725H16.9956V17.6251H18.4956ZM17.8354 16.5171C18.4523 16.4427 19.0735 16.4091 19.6948 16.4167L19.713 14.9168C19.0256 14.9084 18.3383 14.9455 17.6558 15.0279L17.8354 16.5171ZM19.7039 16.4167H27.314V14.9167H19.7039V16.4167ZM27.3231 16.4167C27.9445 16.4091 28.5656 16.4427 29.1825 16.5171L29.3622 15.0279C28.6796 14.9455 27.9923 14.9084 27.3049 14.9168L27.3231 16.4167ZM17.6519 15.0291C16.0467 15.244 14.7937 15.8291 13.7507 17.1852C12.7564 18.478 11.9835 20.4354 11.1652 23.2936L12.6073 23.7065C13.4222 20.8601 14.1337 19.1476 14.9397 18.0997C15.6969 17.1151 16.5599 16.6887 17.851 16.5159L17.6519 15.0291ZM11.1586 23.3182L9.20031 31.1515L10.6555 31.5153L12.6139 23.682L11.1586 23.3182ZM9.18812 31.2101C8.66031 34.377 9.6031 36.6228 11.3814 38.0398C13.1027 39.4113 15.4949 39.9167 17.7397 39.9167V38.4167C15.6703 38.4167 13.667 37.943 12.3162 36.8666C11.0224 35.8357 10.2164 34.1649 10.6677 31.4567L9.18812 31.2101ZM17.7397 39.9167H23.6049V38.4167H17.7397V39.9167ZM23.6049 39.9167H29.2665V38.4167H23.6049V39.9167ZM29.2665 39.9167C31.5085 39.9167 33.8996 39.4113 35.621 38.0398C37.3993 36.6231 38.3438 34.3776 37.8181 31.2106L36.3384 31.4562C36.7879 34.1643 35.9807 35.8354 34.6864 36.8666C33.3352 37.9431 31.3327 38.4167 29.2665 38.4167V39.9167ZM37.8059 31.1515L35.8475 23.3182L34.3923 23.682L36.3506 31.5153L37.8059 31.1515ZM35.8412 23.2945C35.0266 20.4366 34.2538 18.4796 33.2591 17.1866C32.2161 15.8308 30.963 15.2452 29.3608 15.0292L29.1604 16.5158C30.4487 16.6895 31.3125 17.1164 32.0702 18.1012C32.8762 19.149 33.5878 20.8609 34.3986 23.7057L35.8412 23.2945ZM16.9956 22.7559V24.4792H18.4956V22.7559H16.9956ZM23.4071 10.5417C26.2322 10.5493 28.5184 12.8416 28.5184 15.6667L30.0184 15.6668C30.0184 12.0148 27.0631 9.05149 23.4111 9.04175L23.4071 10.5417ZM28.5184 15.6667V15.7725H30.0184V15.6667H28.5184ZM28.5184 15.7725V17.6251H30.0184V15.7725H28.5184ZM28.5184 22.7579V24.4792H30.0184V22.7579H28.5184Z" fill="#F7A300"/>
</svg>
