<svg width="47" height="47" viewBox="0 0 47 47" fill="none" xmlns="http://www.w3.org/2000/svg">
<path d="M21.9574 13.0943C21.9574 13.3495 21.8599 13.5943 21.6864 13.7748C21.5128 13.9552 21.2774 14.0566 21.0319 14.0566H18.5638C18.3184 14.0566 18.083 13.9552 17.9094 13.7748C17.7358 13.5943 17.6383 13.3495 17.6383 13.0943C17.6383 12.8391 17.7358 12.5944 17.9094 12.4139C18.083 12.2335 18.3184 12.1321 18.5638 12.1321H21.0319C21.2774 12.1321 21.5128 12.2335 21.6864 12.4139C21.8599 12.5944 21.9574 12.8391 21.9574 13.0943ZM30.0003 34.2642L30.5741 38.434C30.6184 38.7527 30.5962 39.0775 30.509 39.3865C30.4219 39.6955 30.2718 39.9814 30.069 40.2248C29.8662 40.4682 29.6155 40.6634 29.3337 40.7971C29.052 40.9309 28.7459 41.0001 28.4362 41H18.5638C18.2541 41.0001 17.948 40.9309 17.6663 40.7971C17.3845 40.6634 17.1338 40.4682 16.931 40.2248C16.7282 39.9814 16.5781 39.6955 16.491 39.3865C16.4038 39.0775 16.3816 38.7527 16.4259 38.434L16.9997 34.2642C14.597 33.0093 12.5768 31.0852 11.1643 28.7065C9.75175 26.3278 9.00248 23.588 9 20.7925C9 20.5372 9.09751 20.2925 9.27108 20.112C9.44465 19.9316 9.68007 19.8302 9.92553 19.8302H12.7021V9.24528C12.7021 8.6498 12.9297 8.0787 13.3347 7.65763C13.7397 7.23656 14.2889 7 14.8617 7H32.1383C32.7111 7 33.2603 7.23656 33.6653 7.65763C34.0703 8.0787 34.2979 8.6498 34.2979 9.24528V19.8302H37.0745C37.3199 19.8302 37.5553 19.9316 37.7289 20.112C37.9025 20.2925 38 20.5372 38 20.7925C37.9975 23.588 37.2483 26.3278 35.8357 28.7065C34.4232 31.0852 32.403 33.0093 30.0003 34.2642ZM14.5532 19.8302H32.4468V9.24528C32.4468 9.16021 32.4143 9.07863 32.3564 9.01847C32.2986 8.95832 32.2201 8.92453 32.1383 8.92453H14.8617C14.7799 8.92453 14.7014 8.95832 14.6436 9.01847C14.5857 9.07863 14.5532 9.16021 14.5532 9.24528V19.8302ZM28.2372 35.0404C25.1682 36.1434 21.8318 36.1434 18.7628 35.0404L18.2553 38.7098C18.2492 38.7552 18.2524 38.8015 18.265 38.8455C18.2775 38.8895 18.2989 38.9302 18.3278 38.9648C18.3571 38.9999 18.3934 39.028 18.4341 39.0471C18.4749 39.0662 18.5191 39.0759 18.5638 39.0755H28.4362C28.4804 39.0754 28.524 39.0655 28.5642 39.0465C28.6044 39.0274 28.6402 38.9995 28.6691 38.9648C28.698 38.9302 28.7195 38.8895 28.732 38.8455C28.7445 38.8015 28.7478 38.7552 28.7416 38.7098L28.2372 35.0404ZM36.115 21.7547H10.885C11.1188 25.067 12.5494 28.1646 14.8894 30.4255C17.2295 32.6864 20.3056 33.943 23.5 33.943C26.6944 33.943 29.7705 32.6864 32.1106 30.4255C34.4506 28.1646 35.8812 25.067 36.115 21.7547Z" fill="#F7A300"/>
</svg>
