<svg width="47" height="47" viewBox="0 0 47 47" fill="none" xmlns="http://www.w3.org/2000/svg">
<path fill-rule="evenodd" clip-rule="evenodd" d="M23.5002 27.416C25.6633 27.416 27.4168 29.1696 27.4168 31.3327C27.4168 33.4958 25.6633 35.2493 23.5002 35.2493C21.337 35.2493 19.5835 33.4958 19.5835 31.3327C19.5835 29.1696 21.337 27.416 23.5002 27.416Z" stroke="#F7A300" stroke-width="1.5" stroke-linecap="round" stroke-linejoin="round"/>
<path d="M13.6119 22.9093C13.2859 23.1649 13.2288 23.6363 13.4844 23.9623C13.74 24.2882 14.2114 24.3453 14.5374 24.0898L13.6119 22.9093ZM32.4608 24.0898C32.7868 24.3453 33.2582 24.2882 33.5138 23.9623C33.7694 23.6363 33.7123 23.1649 33.3863 22.9093L32.4608 24.0898ZM9.33119 18.0118C9.00427 18.2661 8.94545 18.7373 9.19982 19.0643C9.45418 19.3912 9.92539 19.45 10.2523 19.1956L9.33119 18.0118ZM36.7692 19.2116C37.105 19.4542 37.5738 19.3787 37.8164 19.0429C38.0589 18.7071 37.9834 18.2383 37.6476 17.9957L36.7692 19.2116ZM14.5374 24.0898C19.7996 19.9641 27.1986 19.9641 32.4608 24.0898L33.3863 22.9093C27.5806 18.3576 19.4176 18.3576 13.6119 22.9093L14.5374 24.0898ZM10.2523 19.1956C15.8326 14.8538 21.2427 14.0057 25.8505 14.6501C30.4857 15.2984 34.3512 17.4649 36.7692 19.2116L37.6476 17.9957C35.113 16.1647 31.0188 13.8583 26.0582 13.1646C21.0702 12.467 15.2482 13.4079 9.33119 18.0118L10.2523 19.1956Z" fill="#F7A300"/>
</svg>
